<?xml version="1.0" encoding="utf-8"?>
<!-- Generator: Adobe Illustrator 18.1.0, SVG Export Plug-In . SVG Version: 6.00 Build 0)  -->
<svg version="1.1" id="Layer_1" xmlns="http://www.w3.org/2000/svg" xmlns:xlink="http://www.w3.org/1999/xlink" x="0px" y="0px"
	 viewBox="86.3 274.2 283.5 283.5" enable-background="new 86.3 274.2 283.5 283.5" xml:space="preserve">
<g>
	<polygon fill="#FFFFFF" points="148.1,363.4 148.3,363.6 228.1,409.6 307.9,363.6 308.2,363.4 228.1,317.2 	"/>
	<polygon fill="#FFFFFF" points="142.5,373.4 142.5,465.6 228.1,514.6 313.5,465.6 313.5,373.4 228.1,422.7 	"/>
	<path fill="#222221" d="M228.1,304.1l-96.8,56v112l96.8,55.5l96.6-55.5v-112L228.1,304.1z M307.9,363.6l-79.8,46l-79.8-46l-0.2-0.2
		l80-46.2L307.9,363.6L307.9,363.6z M313.5,465.6l-85.4,49l-85.6-49v-92.2l85.6,49.2l85.4-49.2L313.5,465.6L313.5,465.6z"/>
</g>
</svg>
